<svg width="868" height="736" viewBox="0 0 868 736" fill="none" xmlns="http://www.w3.org/2000/svg">
<g clip-path="url(#clip0_26_385)">
<path d="M283.859 107.256V214.456H246.004L243.332 183.931C241.55 186.099 239.602 188.212 237.598 190.269C228.802 199.11 218.002 206.116 205.087 211.231C192.171 216.402 177.141 218.96 159.939 218.96C142.737 218.96 128.151 216.513 113.844 211.676C99.5372 206.838 86.9559 199.666 76.156 190.269C65.3004 180.817 56.8943 169.363 50.9377 155.796C44.9253 142.285 41.9192 126.828 41.9192 109.48C41.9192 92.1321 44.981 76.6748 51.049 63.1636C57.117 49.5967 65.6344 38.1428 76.5457 28.6905C87.5126 19.2938 100.317 12.1212 114.958 7.28383C129.654 2.44648 145.687 0 163.056 0C185.658 0 205.309 3.55851 222.066 10.6755C238.767 17.737 252.239 27.4673 262.426 39.7552C272.614 52.0988 279.072 66.2773 281.911 82.3462H228.357C226.464 74.5063 222.567 67.7229 216.555 62.0515C210.598 56.3245 203.083 51.9876 194.008 48.9851C184.934 46.0382 174.635 44.537 163.056 44.537C149.027 44.537 136.947 46.9835 126.871 51.932C116.795 56.8806 108.945 64.1644 103.323 73.7835C97.7001 83.4026 94.9166 95.3014 94.9166 109.48C94.9166 123.658 97.8671 135.724 103.768 145.621C109.613 155.518 118.075 162.969 128.986 167.973C139.898 173.033 152.757 175.535 167.51 175.535C182.262 175.535 194.565 173.422 205.532 169.14C216.443 164.804 225.128 158.687 231.585 150.625C233.088 148.735 234.425 146.789 235.649 144.787H173.689V107.256H283.859Z" fill="#F5F6F4"/>
<path d="M434.111 218.96C409.45 218.96 387.794 214.4 369.201 205.226C350.607 196.107 336.189 183.319 325.89 166.861C315.591 150.458 310.469 131.276 310.469 109.48C310.469 87.6839 315.591 68.5013 325.89 52.0988C336.189 35.6963 350.607 22.9079 369.201 13.7336C387.794 4.61494 409.45 0 434.111 0C434.891 0 740.294 0 741.073 0C764.789 0.278009 785.609 4.83735 803.646 13.7336C822.24 22.9079 836.714 35.6407 847.124 52.0988C857.478 68.5013 862.656 87.6283 862.656 109.48C862.656 131.331 857.478 150.458 847.124 166.861C836.769 183.263 822.24 196.052 803.646 205.226C785.776 214.011 765.067 218.57 741.63 218.904C740.684 218.904 435.113 218.904 434.111 218.904V218.96ZM434.111 171.643C435.058 171.643 740.684 171.643 741.574 171.643C754.935 171.365 766.514 168.862 776.312 164.248C786.778 159.299 794.85 152.182 800.584 142.841C806.262 133.5 809.157 122.379 809.157 109.535C809.157 96.6914 806.318 85.5711 800.584 76.23C794.906 66.8889 786.778 59.7719 776.312 54.8233C766.514 50.2084 754.935 47.7619 741.574 47.4283C740.628 47.4283 435.058 47.4283 434.111 47.4283C419.693 47.4283 407.279 49.9303 396.813 54.8233C386.347 59.7719 378.219 66.8889 372.429 76.23C366.64 85.5711 363.745 96.6914 363.745 109.535C363.745 122.379 366.64 133.5 372.429 142.841C378.219 152.182 386.347 159.299 396.813 164.248C407.279 169.196 419.693 171.643 434.111 171.643Z" fill="#F5F6F4"/>
<path d="M259.643 265.721H99.8712L1.78143 478.064H58.7871L77.6591 435.306H281.799L300.783 478.064H357.733L259.643 265.721ZM96.6981 392.27L133.607 308.701L134.498 306.644L224.905 306.81L262.816 392.27H96.7537H96.6981Z" fill="#F5F6F4"/>
<path d="M602.345 265.721V478.064H534.873L422.643 323.046V478.064H370.759V265.721H440.179L550.461 417.68V265.721H602.345Z" fill="#F5F6F4"/>
<path d="M868 265.721L768.797 391.659V478.064H715.187V392.548L615.371 265.721H674.66L741.741 350.847L808.768 265.721H868Z" fill="#F5F6F4"/>
<path d="M216.722 524.825V571.586H134.832V734.832H81.8899V571.586H0V524.825H216.722Z" fill="#F5F6F4"/>
<path d="M242.218 524.825H295.216V734.832H242.218V524.825Z" fill="#F5F6F4"/>
<path d="M866.664 692.909V736H684.569V525.992H737.566V526.048H865.217V569.139H737.566V611.396H857.311V650.596H737.566V692.909H866.664Z" fill="#F5F6F4"/>
<path d="M640.534 524.825V734.832H590.098V571.641L516.948 734.832H462.837L389.687 572.197V734.832H339.195V524.825H420.806L490.004 683.901L558.978 524.825H640.534Z" fill="#F5F6F4"/>
</g>
<defs>
<clipPath id="clip0_26_385">
<rect width="868" height="736" fill="white"/>
</clipPath>
</defs>
</svg>
