<svg width="1932" height="937" viewBox="0 0 1932 937" fill="none" xmlns="http://www.w3.org/2000/svg">
<g clip-path="url(#clip0_26_47)">
<path d="M700.801 787.363C713.54 787.363 726.113 786.472 738.408 784.692C662.08 877.679 546.198 937 416.519 937C186.48 937 0 750.468 0 520.308C0 290.148 186.48 103.672 416.519 103.672C546.198 103.672 662.08 162.993 738.408 255.981C726.113 254.2 713.54 253.309 700.801 253.309C553.431 253.309 433.877 372.897 433.877 520.308C433.877 667.72 553.431 787.363 700.801 787.363Z" fill="#D1F000"/>
<path d="M967.78 520.308C967.78 655.032 868.032 766.439 738.408 784.692C797.545 712.794 833.039 620.697 833.039 520.308C833.039 419.919 797.545 327.878 738.408 255.981C868.032 274.233 967.78 385.64 967.78 520.308Z" fill="#00C9DD"/>
<path d="M862.802 223.927C924.62 223.927 974.734 173.799 974.734 111.964C974.734 50.1278 924.62 0 862.802 0C800.983 0 750.87 50.1278 750.87 111.964C750.87 173.799 800.983 223.927 862.802 223.927Z" fill="#FF3FC0"/>
<g clip-path="url(#clip1_26_47)">
<path d="M1349.86 260.256V367.456H1312L1309.33 336.931C1307.55 339.099 1305.6 341.212 1303.6 343.269C1294.8 352.11 1284 359.116 1271.09 364.231C1258.17 369.402 1243.14 371.96 1225.94 371.96C1208.74 371.96 1194.15 369.513 1179.84 364.676C1165.54 359.838 1152.96 352.666 1142.16 343.269C1131.3 333.817 1122.89 322.363 1116.94 308.796C1110.93 295.285 1107.92 279.828 1107.92 262.48C1107.92 245.132 1110.98 229.675 1117.05 216.164C1123.12 202.597 1131.63 191.143 1142.55 181.69C1153.51 172.294 1166.32 165.121 1180.96 160.284C1195.65 155.446 1211.69 153 1229.06 153C1251.66 153 1271.31 156.559 1288.07 163.676C1304.77 170.737 1318.24 180.467 1328.43 192.755C1338.61 205.099 1345.07 219.277 1347.91 235.346H1294.36C1292.46 227.506 1288.57 220.723 1282.55 215.052C1276.6 209.325 1269.08 204.988 1260.01 201.985C1250.93 199.038 1240.64 197.537 1229.06 197.537C1215.03 197.537 1202.95 199.983 1192.87 204.932C1182.8 209.881 1174.95 217.164 1169.32 226.783C1163.7 236.403 1160.92 248.301 1160.92 262.48C1160.92 276.658 1163.87 288.724 1169.77 298.621C1175.61 308.518 1184.08 315.969 1194.99 320.973C1205.9 326.033 1218.76 328.535 1233.51 328.535C1248.26 328.535 1260.57 326.422 1271.53 322.14C1282.44 317.804 1291.13 311.687 1297.59 303.625C1299.09 301.735 1300.42 299.789 1301.65 297.787H1239.69V260.256H1349.86Z" fill="#252736"/>
<path d="M1500.11 371.96C1475.45 371.96 1453.79 367.4 1435.2 358.226C1416.61 349.107 1402.19 336.319 1391.89 319.861C1381.59 303.458 1376.47 284.276 1376.47 262.48C1376.47 240.684 1381.59 221.501 1391.89 205.099C1402.19 188.696 1416.61 175.908 1435.2 166.734C1453.79 157.615 1475.45 153 1500.11 153C1500.89 153 1806.29 153 1807.07 153C1830.79 153.278 1851.61 157.837 1869.65 166.734C1888.24 175.908 1902.71 188.641 1913.12 205.099C1923.48 221.501 1928.66 240.628 1928.66 262.48C1928.66 284.331 1923.48 303.458 1913.12 319.861C1902.77 336.263 1888.24 349.052 1869.65 358.226C1851.78 367.011 1831.07 371.57 1807.63 371.904C1806.68 371.904 1501.11 371.904 1500.11 371.904V371.96ZM1500.11 324.643C1501.06 324.643 1806.68 324.643 1807.57 324.643C1820.94 324.365 1832.51 321.862 1842.31 317.248C1852.78 312.299 1860.85 305.182 1866.58 295.841C1872.26 286.5 1875.16 275.379 1875.16 262.535C1875.16 249.691 1872.32 238.571 1866.58 229.23C1860.91 219.889 1852.78 212.772 1842.31 207.823C1832.51 203.208 1820.94 200.762 1807.57 200.428C1806.63 200.428 1501.06 200.428 1500.11 200.428C1485.69 200.428 1473.28 202.93 1462.81 207.823C1452.35 212.772 1444.22 219.889 1438.43 229.23C1432.64 238.571 1429.75 249.691 1429.75 262.535C1429.75 275.379 1432.64 286.5 1438.43 295.841C1444.22 305.182 1452.35 312.299 1462.81 317.248C1473.28 322.196 1485.69 324.643 1500.11 324.643Z" fill="#252736"/>
<path d="M1325.64 418.721H1165.87L1067.78 631.064H1124.79L1143.66 588.306H1347.8L1366.78 631.064H1423.73L1325.64 418.721ZM1162.7 545.27L1199.61 461.701L1200.5 459.644L1290.9 459.81L1328.82 545.27H1162.75H1162.7Z" fill="#252736"/>
<path d="M1668.34 418.721V631.064H1600.87L1488.64 476.046V631.064H1436.76V418.721H1506.18L1616.46 570.68V418.721H1668.34Z" fill="#252736"/>
<path d="M1934 418.721L1834.8 544.659V631.064H1781.19V545.548L1681.37 418.721H1740.66L1807.74 503.847L1874.77 418.721H1934Z" fill="#252736"/>
<path d="M1282.72 677.825V724.586H1200.83V887.832H1147.89V724.586H1066V677.825H1282.72Z" fill="#252736"/>
<path d="M1308.22 677.825H1361.22V887.832H1308.22V677.825Z" fill="#252736"/>
<path d="M1932.66 845.909V889H1750.57V678.992H1803.57V679.048H1931.22V722.139H1803.57V764.397H1923.31V803.596H1803.57V845.909H1932.66Z" fill="#252736"/>
<path d="M1706.53 677.825V887.832H1656.1V724.641L1582.95 887.832H1528.84L1455.69 725.197V887.832H1405.19V677.825H1486.81L1556 836.901L1624.98 677.825H1706.53Z" fill="#252736"/>
</g>
</g>
<defs>
<clipPath id="clip0_26_47">
<rect width="1932" height="937" fill="white"/>
</clipPath>
<clipPath id="clip1_26_47">
<rect width="868" height="736" fill="white" transform="translate(1066 153)"/>
</clipPath>
</defs>
</svg>
