<svg width="974" height="935" viewBox="0 0 974 935" fill="none" xmlns="http://www.w3.org/2000/svg">
<g clip-path="url(#clip0_26_3)">
<path d="M701.113 787.459C713.859 787.459 726.437 786.569 738.737 784.788C662.376 877.787 546.442 937.115 416.705 937.115C186.563 937.115 0 750.56 0 520.372C0 290.184 186.563 103.685 416.705 103.685C546.442 103.685 662.376 163.013 738.737 256.012C726.437 254.231 713.859 253.341 701.113 253.341C553.677 253.341 434.07 372.943 434.07 520.372C434.07 667.802 553.677 787.459 701.113 787.459Z" fill="#D1F000"/>
<path d="M968.212 520.372C968.212 655.112 868.418 766.533 738.737 784.788C797.901 712.882 833.41 620.773 833.41 520.372C833.41 419.971 797.901 327.918 738.737 256.012C868.418 274.267 968.212 385.687 968.212 520.372Z" fill="#00C9DD"/>
<path d="M863.188 223.955C925.034 223.955 975.17 173.821 975.17 111.977C975.17 50.134 925.034 0 863.188 0C801.342 0 751.206 50.134 751.206 111.977C751.206 173.821 801.342 223.955 863.188 223.955Z" fill="#FF3FC0"/>
</g>
<defs>
<clipPath id="clip0_26_3">
<rect width="974" height="935" fill="white"/>
</clipPath>
</defs>
</svg>
