<svg width="568" height="568" viewBox="0 0 568 568" fill="none" xmlns="http://www.w3.org/2000/svg">
<path d="M154.499 166.999C195.092 166.999 227.999 134.092 227.999 93.4995C227.999 52.9069 195.092 20 154.499 20C113.907 20 81 52.9069 81 93.4995C81 134.092 113.907 166.999 154.499 166.999Z" stroke="#333E48" stroke-width="4" stroke-linecap="round" stroke-linejoin="round"/>
<path d="M94.3418 93.5012C94.3418 60.2783 121.272 33.3477 154.495 33.3477" stroke="#333E48" stroke-width="4" stroke-linecap="round" stroke-linejoin="round"/>
<path d="M214.278 100.24C212.404 117.046 203.605 131.764 190.799 141.471" stroke="#333E48" stroke-width="4" stroke-linecap="round" stroke-linejoin="round"/>
<path d="M142.975 129.161V57.6328" stroke="#333E48" stroke-width="4" stroke-linecap="round" stroke-linejoin="round"/>
<path d="M142.974 57.6328H166.278C176.3 57.6328 184.423 65.8121 184.423 75.9008C184.423 85.9894 176.3 94.1688 166.278 94.1688H131.814" stroke="#333E48" stroke-width="4" stroke-linecap="round" stroke-linejoin="round"/>
<path d="M173.859 110.035H131.814" stroke="#333E48" stroke-width="4" stroke-linecap="round" stroke-linejoin="round"/>
<path d="M494.538 450.492C494.538 450.492 513.752 456.509 515.791 459.743C518.417 463.903 515.073 474.147 515.094 479.066C515.12 486.492 518.386 498.363 517.434 505.207C516.04 515.201 509.072 519.694 509.072 519.694C509.072 519.694 502.26 501.749 496.052 487.324C493.862 482.238 489.203 473.565 489.203 473.565L494.538 450.492Z" stroke="#333E48" stroke-width="4" stroke-linecap="round" stroke-linejoin="round"/>
<path d="M386.6 296.062L399.34 370.318C399.34 370.318 439.921 396.022 451.439 407.592C451.439 407.592 481.079 440.701 494.532 450.493L489.196 473.565C489.196 473.565 398.919 414.878 370.782 387.245C364.204 380.781 354.735 369.242 345.604 353.783" stroke="#333E48" stroke-width="4" stroke-linecap="round" stroke-linejoin="round"/>
<path d="M347.668 501.473C347.668 501.473 356.825 519.402 355.947 523.125C354.818 527.909 345.162 532.703 341.662 536.156C336.379 541.377 330.186 552.016 324.637 556.13C316.525 562.136 308.439 560.305 308.439 560.305C308.439 560.305 316.479 542.88 322.433 528.346C324.528 523.224 327.461 513.823 327.461 513.823L347.668 501.473Z" stroke="#333E48" stroke-width="4" stroke-linecap="round" stroke-linejoin="round"/>
<path d="M396.06 246.807C396.06 246.807 403.044 272.198 382.571 302.577L330.831 374.253C330.831 374.253 345.313 430.933 345.116 447.256C345.116 447.256 345.241 485.009 347.664 501.472L327.457 513.816C327.457 513.816 298.03 405.147 298.747 365.715C299.205 340.604 315.086 266.125 317.816 247.8" stroke="#333E48" stroke-width="4" stroke-linecap="round" stroke-linejoin="round"/>
<path d="M319.168 57.7305C316.178 69.7945 314.701 82.8153 316.833 94.7493C319.189 107.697 326.5 107.094 336.625 105.726L335.548 114.072C335.548 114.072 334.186 132.824 351.424 133.079H351.866C369.104 132.824 367.741 114.072 367.741 114.072L365.698 103.152" stroke="#333E48" stroke-width="4" stroke-linecap="round" stroke-linejoin="round"/>
<path d="M336.623 105.726C339.675 105.315 347.158 104.301 347.158 104.301" stroke="#333E48" stroke-width="4" stroke-linecap="round" stroke-linejoin="round"/>
<path d="M350.436 87.4785C349.427 87.8373 348.299 88.0505 347.035 88.0869" stroke="#333E48" stroke-width="4" stroke-linecap="round" stroke-linejoin="round"/>
<path d="M336.623 105.727L335.547 114.072" stroke="#333E48" stroke-width="4" stroke-linecap="round" stroke-linejoin="round"/>
<path fill-rule="evenodd" clip-rule="evenodd" d="M322.376 46.6951L337.898 62.0714C337.898 62.0714 333.733 74.1978 339.219 77.5622L342.49 73.4127C343.915 71.6082 345.901 70.2926 348.158 69.8506C358.246 67.859 359.951 84.1508 350.347 87.4684V87.4631C352.292 105.122 383.268 109.183 391.219 101.461C399.175 93.7394 385.213 59.9448 377.377 46.6588C368.708 31.9584 356.644 34.7246 341.918 28.8226C324.669 21.9066 311.316 23.5447 307.806 35.7959C304.296 48.0471 319.163 57.7243 319.163 57.7243C320.052 54.2611 321.295 49.9503 322.376 46.6951Z" fill="#333E48" stroke="#333E48" stroke-width="4" stroke-linecap="round" stroke-linejoin="round"/>
<path d="M317.821 247.8C317.821 247.8 278.925 320.111 278.238 393.92C278.238 393.92 394.812 414.616 465.173 366.329C465.173 366.329 411.426 295.328 396.06 246.807" stroke="#333E48" stroke-width="4" stroke-linecap="round" stroke-linejoin="round"/>
<path fill-rule="evenodd" clip-rule="evenodd" d="M389.83 314.861L350.643 361.879L345.609 353.783L386.601 296.062L389.83 314.861Z" fill="#333E48"/>
<path d="M404.611 210C406.289 219.879 404.321 230.393 398.277 239.331C385.818 257.754 360.691 262.612 342.267 250.152C323.844 237.693 318.987 212.567 331.446 194.143C332.877 192.028 334.474 190.092 336.209 188.34M381.5 198.479C390.421 206.603 392.276 220.29 385.324 230.569C377.695 241.848 362.313 244.822 351.029 237.194C339.751 229.566 336.776 214.184 344.405 202.9C348.589 196.71 355.106 193.023 362 192.213" stroke="#333E48" stroke-width="4" stroke-linecap="round" stroke-linejoin="round"/>
<path d="M399.119 180.03L440.948 118.176L453.085 126.382L460.531 115.368L455.232 111.785L460.297 104.297L468.191 109.632L476.953 96.674L462.221 86.716L465.804 81.4172C468.222 77.8396 467.286 72.9777 463.708 70.5597C460.131 68.1417 455.269 69.0776 452.851 72.6552L382 177.433" stroke="#333E48" stroke-width="4" stroke-linecap="round" stroke-linejoin="round"/>
<path d="M387.162 179.383C401.67 182.924 410.926 182.851 423.198 187.282" stroke="#333E48" stroke-width="4" stroke-linecap="round" stroke-linejoin="round"/>
<path fill-rule="evenodd" clip-rule="evenodd" d="M389.093 221.526C387.024 213.926 384.933 206.13 383.51 200.536C382.223 199.052 380.738 197.702 379.063 196.525C378.249 196.216 377.417 195.91 376.555 195.602C373.175 194.79 368.828 193.709 362.832 192.206C362.754 192.187 362.677 192.168 362.6 192.149C355.486 192.81 348.711 196.53 344.405 202.899C336.777 214.183 339.751 229.565 351.03 237.193C362.314 244.822 377.696 241.847 385.324 230.568C387.231 227.749 388.475 224.673 389.093 221.526ZM336.359 188.19C334.566 189.98 332.918 191.967 331.447 194.142C318.988 212.566 323.844 237.692 342.268 250.152C359.247 261.634 381.918 258.409 395.121 243.413C395.714 245.544 396.065 246.801 396.065 246.801C396.065 246.801 394.755 258.214 351.647 258.214C317.046 259.057 317.826 247.794 317.826 247.794C317.826 247.794 320.733 209.205 323.588 192.414C326.469 175.462 311.711 134.839 311.711 134.839C318.611 122.203 335.548 114.07 335.548 114.07C335.548 114.07 334.185 132.822 351.423 133.076H351.871C369.109 132.822 367.746 114.07 367.746 114.07C367.746 114.07 387.797 124.808 394.703 137.439C394.703 137.439 389.731 155.105 385.849 171.741L381.75 177.803C379.147 176.244 366.513 168.827 361.984 168.925C357.096 169.029 335.501 178.717 331.471 182.123C332.596 184.55 334.337 186.579 336.359 188.19Z" fill="#333E48"/>
<path d="M383.51 200.536L385.448 200.043C385.372 199.74 385.225 199.46 385.02 199.225L383.51 200.536ZM389.093 221.526L391.056 221.911C391.115 221.609 391.104 221.297 391.023 221L389.093 221.526ZM379.063 196.525L380.213 194.889C380.076 194.793 379.929 194.714 379.773 194.655L379.063 196.525ZM376.555 195.602L377.228 193.719C377.161 193.694 377.091 193.674 377.021 193.657L376.555 195.602ZM362.832 192.206L363.318 190.266L363.317 190.266L362.832 192.206ZM362.6 192.149L363.066 190.204C362.853 190.153 362.633 190.138 362.415 190.158L362.6 192.149ZM344.405 202.899L342.748 201.779L344.405 202.899ZM351.03 237.193L349.909 238.85L349.91 238.85L351.03 237.193ZM385.324 230.568L383.667 229.448L385.324 230.568ZM336.359 188.19L337.772 189.604C338.175 189.202 338.388 188.646 338.356 188.077C338.324 187.508 338.05 186.98 337.605 186.625L336.359 188.19ZM331.447 194.142L329.79 193.022L329.79 193.022L331.447 194.142ZM342.268 250.152L341.148 251.808H341.148L342.268 250.152ZM395.121 243.413L397.048 242.877C396.851 242.17 396.283 241.627 395.568 241.463C394.853 241.299 394.105 241.54 393.62 242.091L395.121 243.413ZM396.065 246.801L398.052 247.029C398.082 246.772 398.061 246.511 397.992 246.262L396.065 246.801ZM351.647 258.214V256.214C351.631 256.214 351.614 256.215 351.598 256.215L351.647 258.214ZM317.826 247.794L315.832 247.644L315.831 247.656L317.826 247.794ZM323.588 192.414L325.559 192.749L325.559 192.749L323.588 192.414ZM311.711 134.839L309.956 133.881C309.68 134.384 309.635 134.982 309.831 135.522L311.711 134.839ZM335.548 114.07L337.542 114.215C337.594 113.504 337.263 112.819 336.673 112.417C336.084 112.016 335.325 111.959 334.682 112.267L335.548 114.07ZM351.423 133.076L351.394 135.076C351.404 135.076 351.414 135.076 351.423 135.076V133.076ZM351.871 133.076V135.076C351.88 135.076 351.89 135.076 351.9 135.076L351.871 133.076ZM367.746 114.07L368.69 112.307C368.048 111.963 367.269 111.996 366.657 112.393C366.046 112.79 365.699 113.488 365.751 114.215L367.746 114.07ZM394.703 137.439L396.628 137.981C396.77 137.478 396.709 136.939 396.458 136.48L394.703 137.439ZM385.849 171.741L387.506 172.861C387.643 172.659 387.741 172.433 387.797 172.195L385.849 171.741ZM381.75 177.803L380.723 179.519C381.634 180.064 382.812 179.802 383.407 178.923L381.75 177.803ZM361.984 168.925L362.027 170.925L362.027 170.925L361.984 168.925ZM331.471 182.123L330.18 180.596C329.492 181.177 329.277 182.147 329.656 182.964L331.471 182.123ZM381.572 201.029C382.999 206.641 385.094 214.45 387.163 222.051L391.023 221C388.954 213.402 386.867 205.62 385.448 200.043L381.572 201.029ZM377.913 198.161C379.453 199.244 380.818 200.485 382 201.847L385.02 199.225C383.628 197.62 382.022 196.16 380.213 194.889L377.913 198.161ZM379.773 194.655C378.945 194.341 378.101 194.031 377.228 193.719L375.881 197.485C376.733 197.79 377.553 198.091 378.353 198.395L379.773 194.655ZM377.021 193.657C373.653 192.848 369.315 191.769 363.318 190.266L362.346 194.146C368.34 195.648 372.697 196.733 376.088 197.546L377.021 193.657ZM363.317 190.266C363.233 190.245 363.149 190.224 363.066 190.204L362.135 194.094C362.205 194.111 362.276 194.128 362.347 194.146L363.317 190.266ZM346.062 204.019C350.017 198.169 356.24 194.749 362.785 194.141L362.415 190.158C354.732 190.872 347.404 194.892 342.748 201.779L346.062 204.019ZM352.15 235.536C341.786 228.527 339.052 214.388 346.062 204.019L342.748 201.779C334.501 213.978 337.716 230.603 349.909 238.85L352.15 235.536ZM383.667 229.448C376.658 239.812 362.519 242.546 352.15 235.536L349.91 238.85C362.109 247.097 378.734 243.882 386.981 231.689L383.667 229.448ZM387.131 221.14C386.563 224.03 385.421 226.855 383.667 229.448L386.981 231.689C389.041 228.643 390.387 225.316 391.056 221.911L387.131 221.14ZM334.945 186.775C333.063 188.655 331.333 190.74 329.79 193.022L333.103 195.263C334.503 193.193 336.069 191.306 337.772 189.604L334.945 186.775ZM329.79 193.022C316.712 212.361 321.809 238.73 341.148 251.808L343.388 248.495C325.879 236.654 321.263 212.771 333.103 195.263L329.79 193.022ZM341.148 251.808C358.972 263.862 382.763 260.475 396.622 244.734L393.62 242.091C381.072 256.343 359.521 259.405 343.388 248.495L341.148 251.808ZM393.194 243.949C393.491 245.015 393.727 245.862 393.889 246.443C393.97 246.734 394.033 246.958 394.075 247.109C394.096 247.185 394.112 247.242 394.123 247.281C394.128 247.3 394.132 247.315 394.135 247.325C394.137 247.329 394.138 247.333 394.138 247.336C394.139 247.337 394.139 247.338 394.139 247.338C394.139 247.339 394.139 247.339 394.139 247.339C394.139 247.339 394.139 247.339 394.139 247.339C394.139 247.339 394.139 247.339 394.139 247.339C394.139 247.339 394.139 247.339 396.065 246.801C397.992 246.262 397.992 246.262 397.992 246.262C397.992 246.262 397.992 246.262 397.992 246.262C397.992 246.262 397.991 246.262 397.991 246.262C397.991 246.262 397.991 246.262 397.991 246.261C397.991 246.261 397.991 246.26 397.991 246.259C397.99 246.256 397.989 246.252 397.987 246.248C397.985 246.238 397.981 246.223 397.975 246.204C397.965 246.166 397.949 246.108 397.928 246.033C397.885 245.882 397.823 245.659 397.742 245.369C397.58 244.788 397.344 243.942 397.048 242.877L393.194 243.949ZM396.065 246.801C394.078 246.573 394.079 246.569 394.079 246.565C394.079 246.564 394.08 246.561 394.08 246.559C394.081 246.554 394.081 246.55 394.082 246.546C394.083 246.537 394.084 246.529 394.085 246.522C394.087 246.508 394.089 246.497 394.091 246.487C394.094 246.469 394.096 246.46 394.096 246.461C394.095 246.462 394.086 246.501 394.058 246.573C394.003 246.716 393.872 247.001 393.583 247.39C393.007 248.164 391.761 249.404 389.128 250.718C383.818 253.369 373.077 256.214 351.647 256.214V260.214C373.325 260.214 384.793 257.353 390.915 254.297C393.999 252.758 395.774 251.145 396.791 249.778C397.299 249.097 397.606 248.491 397.792 248.009C397.884 247.769 397.945 247.563 397.985 247.397C398.005 247.314 398.019 247.241 398.03 247.18C398.036 247.149 398.04 247.121 398.044 247.096C398.045 247.083 398.047 247.071 398.049 247.06C398.049 247.054 398.05 247.049 398.051 247.044C398.051 247.041 398.051 247.038 398.051 247.036C398.052 247.033 398.052 247.029 396.065 246.801ZM351.598 256.215C334.435 256.633 326.477 254.023 322.859 251.648C321.086 250.485 320.369 249.389 320.07 248.722C319.916 248.38 319.859 248.12 319.838 247.978C319.827 247.906 319.825 247.863 319.825 247.854C319.825 247.849 319.825 247.853 319.825 247.866C319.824 247.872 319.824 247.881 319.824 247.892C319.823 247.897 319.823 247.904 319.823 247.91C319.823 247.914 319.822 247.917 319.822 247.921C319.822 247.923 319.822 247.925 319.822 247.926C319.822 247.929 319.821 247.932 317.826 247.794C315.831 247.656 315.831 247.659 315.831 247.662C315.83 247.663 315.83 247.666 315.83 247.668C315.83 247.673 315.83 247.677 315.829 247.682C315.829 247.691 315.828 247.702 315.828 247.712C315.827 247.734 315.826 247.759 315.825 247.787C315.824 247.842 315.824 247.909 315.827 247.987C315.832 248.142 315.847 248.34 315.883 248.575C315.954 249.046 316.106 249.659 316.42 250.359C317.056 251.778 318.307 253.445 320.664 254.992C325.305 258.038 334.258 260.638 351.696 260.214L351.598 256.215ZM317.826 247.794C319.82 247.944 319.821 247.944 319.821 247.944C319.821 247.944 319.821 247.943 319.821 247.943C319.821 247.941 319.821 247.94 319.821 247.938C319.821 247.933 319.822 247.926 319.823 247.917C319.824 247.898 319.826 247.871 319.829 247.834C319.834 247.761 319.843 247.652 319.854 247.509C319.876 247.224 319.908 246.802 319.951 246.259C320.035 245.173 320.16 243.602 320.318 241.665C320.635 237.79 321.087 232.449 321.628 226.584C322.712 214.83 324.147 201.058 325.559 192.749L321.616 192.079C320.174 200.56 318.728 214.479 317.645 226.217C317.102 232.099 316.649 237.454 316.332 241.339C316.173 243.282 316.048 244.857 315.963 245.947C315.92 246.492 315.887 246.916 315.865 247.204C315.854 247.347 315.846 247.457 315.84 247.531C315.838 247.568 315.835 247.596 315.834 247.615C315.833 247.624 315.833 247.632 315.832 247.636C315.832 247.639 315.832 247.641 315.832 247.642C315.832 247.642 315.832 247.643 315.832 247.643C315.832 247.644 315.832 247.644 317.826 247.794ZM325.559 192.749C326.336 188.179 325.909 182.198 324.923 175.954C323.929 169.664 322.335 162.921 320.66 156.746C318.984 150.565 317.218 144.923 315.872 140.827C315.199 138.778 314.63 137.114 314.228 135.961C314.028 135.384 313.869 134.935 313.76 134.629C313.706 134.476 313.664 134.359 313.635 134.279C313.621 134.239 313.61 134.209 313.602 134.189C313.599 134.178 313.596 134.17 313.594 134.165C313.593 134.162 313.592 134.16 313.592 134.159C313.591 134.158 313.591 134.157 313.591 134.157C313.591 134.157 313.591 134.156 311.711 134.839C309.831 135.522 309.831 135.522 309.831 135.522C309.831 135.522 309.831 135.523 309.832 135.523C309.832 135.524 309.832 135.526 309.833 135.528C309.835 135.532 309.837 135.539 309.841 135.549C309.847 135.567 309.858 135.595 309.871 135.633C309.898 135.708 309.939 135.821 309.992 135.97C310.098 136.268 310.253 136.708 310.45 137.275C310.845 138.409 311.407 140.051 312.072 142.076C313.403 146.126 315.146 151.699 316.799 157.793C318.454 163.893 320.009 170.484 320.972 176.578C321.942 182.719 322.28 188.172 321.616 192.079L325.559 192.749ZM313.466 135.798C316.7 129.876 322.368 124.896 327.374 121.348C329.855 119.589 332.128 118.213 333.779 117.279C334.603 116.812 335.27 116.457 335.727 116.22C335.955 116.102 336.131 116.013 336.248 115.955C336.306 115.926 336.35 115.904 336.378 115.891C336.391 115.884 336.402 115.879 336.408 115.876C336.411 115.875 336.413 115.874 336.414 115.873C336.414 115.873 336.414 115.873 336.414 115.873C336.414 115.873 336.414 115.873 336.414 115.873C336.414 115.873 336.413 115.873 335.548 114.07C334.682 112.267 334.682 112.268 334.681 112.268C334.681 112.268 334.68 112.268 334.68 112.269C334.679 112.269 334.677 112.27 334.676 112.27C334.673 112.272 334.668 112.274 334.663 112.276C334.653 112.281 334.639 112.288 334.62 112.297C334.584 112.315 334.531 112.341 334.464 112.375C334.329 112.442 334.134 112.54 333.886 112.669C333.39 112.926 332.68 113.305 331.808 113.798C330.068 114.783 327.675 116.231 325.06 118.085C319.873 121.762 313.622 127.167 309.956 133.881L313.466 135.798ZM335.548 114.07C333.553 113.925 333.553 113.926 333.553 113.927C333.553 113.928 333.553 113.929 333.553 113.93C333.553 113.932 333.552 113.934 333.552 113.936C333.552 113.941 333.552 113.947 333.551 113.953C333.55 113.967 333.549 113.986 333.548 114.009C333.545 114.054 333.542 114.117 333.538 114.197C333.532 114.356 333.525 114.581 333.523 114.863C333.519 115.425 333.535 116.217 333.611 117.164C333.762 119.048 334.157 121.602 335.154 124.195C336.153 126.794 337.783 129.501 340.439 131.575C343.117 133.667 346.699 135.007 351.394 135.076L351.453 131.077C347.529 131.019 344.817 129.919 342.902 128.423C340.965 126.91 339.703 124.881 338.888 122.76C338.071 120.634 337.73 118.485 337.598 116.844C337.532 116.029 337.52 115.355 337.523 114.891C337.524 114.659 337.53 114.481 337.535 114.365C337.537 114.307 337.54 114.265 337.541 114.24C337.542 114.227 337.542 114.218 337.543 114.214C337.543 114.212 337.543 114.211 337.543 114.211C337.543 114.212 337.543 114.212 337.543 114.213C337.543 114.213 337.543 114.214 337.543 114.214C337.543 114.214 337.542 114.215 335.548 114.07ZM351.423 135.076H351.871V131.076H351.423V135.076ZM351.9 135.076C356.595 135.007 360.177 133.667 362.855 131.575C365.511 129.501 367.141 126.794 368.139 124.195C369.137 121.602 369.532 119.048 369.683 117.164C369.759 116.217 369.775 115.425 369.771 114.863C369.769 114.581 369.762 114.356 369.756 114.197C369.752 114.117 369.749 114.054 369.746 114.009C369.745 113.986 369.744 113.967 369.743 113.953C369.742 113.947 369.742 113.941 369.742 113.936C369.742 113.934 369.741 113.932 369.741 113.93C369.741 113.929 369.741 113.928 369.741 113.927C369.741 113.926 369.741 113.925 367.746 114.07C365.751 114.215 365.751 114.214 365.751 114.214C365.751 114.214 365.751 114.213 365.751 114.213C365.751 114.212 365.751 114.212 365.751 114.211C365.751 114.211 365.751 114.212 365.751 114.214C365.752 114.218 365.752 114.227 365.753 114.24C365.754 114.265 365.757 114.307 365.759 114.365C365.764 114.481 365.77 114.659 365.771 114.891C365.774 115.355 365.762 116.029 365.696 116.844C365.564 118.485 365.223 120.634 364.406 122.76C363.59 124.881 362.329 126.91 360.392 128.423C358.477 129.919 355.765 131.019 351.841 131.077L351.9 135.076ZM367.746 114.07C366.802 115.833 366.802 115.833 366.802 115.833C366.802 115.833 366.802 115.833 366.802 115.833C366.802 115.833 366.802 115.834 366.803 115.834C366.805 115.835 366.808 115.836 366.812 115.839C366.82 115.843 366.833 115.85 366.85 115.859C366.885 115.878 366.938 115.907 367.009 115.946C367.151 116.024 367.362 116.142 367.635 116.296C368.182 116.606 368.975 117.065 369.951 117.656C371.904 118.839 374.578 120.545 377.46 122.637C383.292 126.868 389.72 132.494 392.948 138.399L396.458 136.48C392.78 129.753 385.73 123.695 379.81 119.399C376.816 117.228 374.046 115.46 372.023 114.235C371.011 113.622 370.184 113.143 369.607 112.816C369.319 112.653 369.093 112.527 368.937 112.442C368.859 112.399 368.799 112.366 368.758 112.344C368.737 112.332 368.721 112.324 368.71 112.318C368.704 112.315 368.7 112.312 368.696 112.31C368.695 112.31 368.694 112.309 368.693 112.308C368.692 112.308 368.691 112.308 368.691 112.308C368.691 112.307 368.69 112.307 367.746 114.07ZM394.703 137.439C392.778 136.897 392.778 136.897 392.778 136.898C392.778 136.898 392.778 136.898 392.778 136.898C392.777 136.899 392.777 136.9 392.777 136.901C392.776 136.903 392.775 136.906 392.774 136.911C392.772 136.92 392.768 136.933 392.763 136.95C392.753 136.984 392.739 137.035 392.72 137.102C392.683 137.237 392.627 137.435 392.555 137.694C392.411 138.212 392.201 138.969 391.937 139.929C391.409 141.85 390.665 144.583 389.799 147.837C388.068 154.343 385.849 162.94 383.901 171.286L387.797 172.195C389.731 163.905 391.939 155.352 393.664 148.866C394.527 145.624 395.268 142.901 395.794 140.99C396.057 140.034 396.265 139.281 396.408 138.767C396.48 138.51 396.535 138.313 396.572 138.181C396.591 138.115 396.605 138.064 396.614 138.031C396.619 138.014 396.622 138.002 396.625 137.993C396.626 137.989 396.627 137.986 396.627 137.984C396.628 137.983 396.628 137.982 396.628 137.982C396.628 137.981 396.628 137.981 396.628 137.981C396.628 137.981 396.628 137.981 394.703 137.439ZM384.192 170.62L380.093 176.682L383.407 178.923L387.506 172.861L384.192 170.62ZM362.027 170.925C362.738 170.909 364.058 171.221 365.908 171.922C367.679 172.593 369.695 173.526 371.69 174.53C375.676 176.534 379.437 178.749 380.723 179.519L382.777 176.087C381.46 175.298 377.602 173.025 373.488 170.956C371.433 169.923 369.279 168.922 367.326 168.182C365.452 167.471 363.494 166.892 361.941 166.926L362.027 170.925ZM332.762 183.651C333.576 182.963 335.49 181.81 338.175 180.413C340.796 179.048 343.985 177.533 347.21 176.117C350.436 174.7 353.671 173.394 356.385 172.439C357.743 171.961 358.949 171.579 359.946 171.316C360.979 171.043 361.662 170.933 362.027 170.925L361.942 166.926C361.084 166.944 360.024 167.159 358.924 167.449C357.789 167.749 356.475 168.167 355.057 168.666C352.221 169.663 348.889 171.011 345.602 172.455C342.313 173.899 339.042 175.452 336.328 176.865C333.677 178.245 331.38 179.581 330.18 180.596L332.762 183.651ZM337.605 186.625C335.781 185.173 334.257 183.379 333.285 181.282L329.656 182.964C330.934 185.721 332.892 187.986 335.113 189.754L337.605 186.625Z" fill="#333E48"/>
<path d="M392.893 180.667C391.312 180.282 383.939 178.572 382.223 178.088C382.223 178.088 367.044 168.816 361.984 168.925C357.096 169.029 335.501 178.718 331.471 182.124C335.038 189.82 344.804 193.517 350.056 192.529C352.791 192.014 357.029 190.755 362.832 192.206C368.828 193.709 373.175 194.791 376.555 195.602C387.444 199.497 393.46 202.96 419.715 217.816C434.082 225.928 441.648 217.328 442.517 209.054C443.725 197.537 429.093 176.492 414 158.195" stroke="#333E48" stroke-width="4" stroke-linecap="round" stroke-linejoin="round"/>
<path fill-rule="evenodd" clip-rule="evenodd" d="M385.069 172.893L403.413 145.765C398.834 140.565 395.066 136.577 391.249 132.541C385.373 126.332 375.727 125.656 369.03 130.965C361.266 137.122 360.642 148.692 367.704 155.644L385.069 172.893Z" fill="#333E48"/>
<path d="M403.413 145.765L405.07 146.885C405.58 146.131 405.516 145.127 404.914 144.443L403.413 145.765ZM385.069 172.893L383.659 174.312C384.082 174.732 384.67 174.941 385.263 174.884C385.856 174.826 386.392 174.507 386.726 174.013L385.069 172.893ZM391.249 132.541L392.702 131.167L392.702 131.166L391.249 132.541ZM369.03 130.965L367.787 129.398L367.787 129.398L369.03 130.965ZM367.704 155.644L369.113 154.225L369.107 154.219L367.704 155.644ZM401.756 144.644L383.412 171.773L386.726 174.013L405.07 146.885L401.756 144.644ZM389.796 133.915C393.612 137.95 397.358 141.915 401.912 147.087L404.914 144.443C400.309 139.214 396.52 135.204 392.702 131.167L389.796 133.915ZM370.272 132.532C376.159 127.866 384.635 128.462 389.797 133.916L392.702 131.166C386.111 124.202 375.295 123.446 367.787 129.398L370.272 132.532ZM369.107 154.219C362.902 148.11 363.45 137.943 370.272 132.532L367.787 129.398C359.082 136.301 358.382 149.274 366.301 157.07L369.107 154.219ZM386.478 171.474L369.113 154.225L366.294 157.063L383.659 174.312L386.478 171.474Z" fill="#333E48"/>
<path fill-rule="evenodd" clip-rule="evenodd" d="M318.844 160.765C304.641 173.972 286.895 189.254 278.603 190.856C254.203 195.564 230.167 191.389 214.89 186.771C209.308 185.084 199.837 180.989 193.358 177.822C188.263 175.337 173.279 167.264 173.279 167.264C176.763 160.318 193.528 169.575 193.528 169.575L207.329 171.064L199.453 161.267C197.502 158.145 200.408 155.536 200.408 155.536L217.286 168.881C218.36 169.809 219.288 170.884 220.05 172.08L222.625 176.114C236.926 173.881 266.811 168.616 273.07 169.631C280.103 164.224 295.453 148.627 305.326 138.773L314.46 130.151C320.039 124.89 328.997 125.859 333.317 132.194C336.718 137.183 336.052 143.887 331.745 148.111L318.844 160.765Z" stroke="#333E48" stroke-width="4" stroke-linecap="round" stroke-linejoin="round"/>
<path fill-rule="evenodd" clip-rule="evenodd" d="M300.952 143.146C302.49 141.605 303.963 140.134 305.326 138.769L314.46 130.147C320.039 124.886 328.997 125.855 333.317 132.19C336.718 137.179 336.052 143.883 331.745 148.107L318.844 160.761L300.952 143.146Z" fill="#333E48" stroke="#333E48" stroke-width="4" stroke-linecap="round" stroke-linejoin="round"/>
<path d="M242.611 286.359C242.611 286.359 86.3156 276.844 82.172 317.494C78.9593 349.06 179.176 390.791 199.332 366.29C226.497 333.266 104.343 224.031 104.343 224.031" stroke="#333E48" stroke-width="4" stroke-linecap="round" stroke-linejoin="round"/>
</svg>
