<svg width="568" height="568" viewBox="0 0 568 568" fill="none" xmlns="http://www.w3.org/2000/svg">
<path d="M95.7001 336.201H66.6001C65.5001 336.201 64.6001 335.301 64.6001 334.201V310.801C64.6001 309.701 65.5001 308.801 66.6001 308.801H95.7001C96.8001 308.801 97.7001 309.701 97.7001 310.801V334.201C97.7001 335.301 96.8001 336.201 95.7001 336.201ZM68.6001 332.201H93.7001V312.801H68.6001V332.201Z" fill="#333E48"/>
<path d="M95.7001 411.099H66.6001C65.5001 411.099 64.6001 410.199 64.6001 409.099V385.699C64.6001 384.599 65.5001 383.699 66.6001 383.699H95.7001C96.8001 383.699 97.7001 384.599 97.7001 385.699V409.099C97.7001 410.199 96.8001 411.099 95.7001 411.099ZM68.6001 407.099H93.7001V387.699H68.6001V407.099Z" fill="#333E48"/>
<path d="M95.8001 512.602H66.6001V547.402H95.9001V512.602H95.8001Z" fill="#333E48"/>
<path d="M95.8001 549.402H66.6001C65.5001 549.402 64.6001 548.502 64.6001 547.402V512.602C64.6001 511.502 65.5001 510.602 66.6001 510.602H95.9001C97.0001 510.602 97.9001 511.502 97.9001 512.602V547.402C97.8001 548.502 96.9001 549.402 95.8001 549.402ZM68.6001 545.402H93.9001V514.602H68.6001V545.402Z" fill="#333E48"/>
<path d="M284.2 210.302C275.8 210.302 264.9 201.202 261.6 198.202C256.2 197.902 215.1 198.102 187.7 198.302C177.8 197.902 173.1 193.502 171 189.902C168.3 185.302 168 179.302 170.4 174.402C175.2 164.402 194.4 158.902 214.7 153.102C220 151.602 225.4 150.002 230.6 148.402C231.7 148.102 232.8 148.702 233.1 149.702C233.4 150.802 232.8 151.902 231.8 152.202C226.5 153.902 221.1 155.402 215.8 156.902C197.2 162.202 178 167.702 174 176.102C172.2 179.802 172.4 184.402 174.4 187.802C176.8 191.802 181.4 194.002 187.7 194.302C199.7 194.202 260.1 193.802 262.8 194.302C263.2 194.402 263.5 194.502 263.8 194.802C269.9 200.402 280.1 207.402 285.5 206.202C282.6 199.202 273.4 181.902 270.3 179.902C268.1 178.502 258 179.302 251.3 179.802C246.8 180.202 242.6 180.502 239.7 180.402C238.2 180.302 234.5 179.302 228.1 177.602C221.4 175.702 213.1 173.402 209.9 173.302C208.8 173.202 207.9 172.302 208 171.202C208.1 170.102 209 169.202 210.1 169.302C213.7 169.502 221.9 171.802 229.1 173.802C233.6 175.002 238.7 176.502 239.7 176.502C242.3 176.602 246.5 176.302 250.9 175.902C261.8 175.002 269.3 174.602 272.3 176.602C277.1 179.702 288.1 201.702 289.8 206.702C290.1 207.602 289.7 208.502 289 209.002C287.7 209.902 286 210.302 284.2 210.302Z" fill="#333E48"/>
<path d="M376.6 529H345.7C344.9 529 344.2 528.5 343.9 527.8C343.6 527 310 449.5 300.8 422.7C296.6 410.5 291.8 398.2 287.1 386.3C271.1 345.3 254.5 303 263.1 261.8C263.3 261 263.9 260.4 264.7 260.2C265.5 260 266.3 260.4 266.7 261C266.8 261.1 274.9 271.5 315.8 271.5C356.6 271.5 364.5 262 364.5 261.9C364.9 261.3 365.6 261 366.3 261.1C367 261.2 367.6 261.7 367.9 262.4C376.8 284.2 389.3 303 400.3 319.5C410.1 334.2 418.5 346.8 422.7 358.7C422.8 358.9 422.8 359 422.8 359.2C426.9 417.7 423.3 525.9 423.3 526.9C423.3 528 422.4 528.8 421.3 528.8H393.9C393 528.8 392.2 528.2 392 527.3C391.8 526.5 370.8 452 376.6 390.2C362.3 378.7 346.1 355.5 338 343.2C341.3 365.1 345.4 390.4 348.1 402.7C355.9 438 378.1 525.4 378.3 526.3C378.5 526.9 378.3 527.5 377.9 528C377.8 528.7 377.2 529 376.6 529ZM347 525H374C370.3 510.4 351.4 435.8 344.4 403.8C341.3 389.6 336.4 358.5 332.9 334.8C332.9 334.7 332.9 334.6 332.9 334.5C330.4 317.7 328.6 304.8 328.5 304.5C328.3 303.4 329.1 302.4 330.2 302.2C331.3 302 332.3 302.8 332.5 303.9C332.5 304.2 334.4 317 336.8 333.6C339.2 337.5 361.9 373.8 380.2 387.8C380.7 388.2 381 388.9 381 389.6C375.4 446.1 392.9 514.2 395.8 524.9H419.7C420.2 510.1 422.9 413.8 419.2 359.8C415.2 348.4 406.9 336 397.3 321.7C386.6 305.7 374.5 287.6 365.6 266.5C360.9 269.8 348.3 275.5 316 275.5C297.9 275.5 283.6 273.5 273.7 269.7C270.4 268.4 268.1 267.1 266.5 266C259.6 304.9 274.8 343.7 290.9 384.8C295.6 396.8 300.4 409.1 304.6 421.4C313 446.2 342.7 515 347 525Z" fill="#333E48"/>
<path d="M447.8 549.2H401C399.9 549.2 399 548.3 399 547.2C399 546.1 399.9 545.2 401 545.2H444.8C443.5 543.2 440.7 540.4 434.5 538.3C424.9 535.2 419 530.6 417.1 529H399.5C398.9 531.2 397.7 535.6 397.6 540C397.6 541.1 396.6 542 395.5 541.9C394.4 541.9 393.5 540.9 393.6 539.8C393.8 533.2 396.1 526.6 396.2 526.3C396.5 525.5 397.2 525 398.1 525H417.9C418.4 525 418.9 525.2 419.3 525.6C419.4 525.7 425.2 531.1 435.8 534.6C448.6 538.8 449.8 546.7 449.8 547C449.9 547.6 449.7 548.1 449.3 548.6C448.9 549 448.3 549.2 447.8 549.2Z" fill="#333E48"/>
<path d="M401 549.2H349.9C349.1 549.2 348.4 548.7 348.1 548C344.7 540.4 348.9 527.7 349.4 526.4C349.6 525.6 350.4 525 351.3 525H371.1C371.6 525 372.1 525.2 372.5 525.6C372.6 525.7 378.4 531.1 389 534.6C401.8 538.8 403 546.7 403 547C403.1 547.6 402.9 548.1 402.5 548.6C402.1 549 401.6 549.2 401 549.2ZM351.3 545.2H398C396.7 543.2 393.9 540.4 387.7 538.3C378.1 535.2 372.2 530.6 370.3 529H352.7C351.5 532.9 349.9 540.4 351.3 545.2Z" fill="#333E48"/>
<path d="M296 160.701C292.4 160.701 289.3 159.701 286.6 157.801C279.8 152.901 278.5 143.601 278.5 143.201C278.5 143.101 278.5 143.101 278.5 143.001L278.1 120.601L277 92.301C277 91.601 277.3 91.001 277.8 90.601L310.2 66.301C310.7 66.001 311.2 65.801 311.8 65.901C312.4 66.001 312.8 66.401 313.1 66.901C319.9 78.601 328 96.301 328.4 113.801C328.7 127.901 320.6 129.701 312 130.401L313.9 135.901V136.001C314 136.401 316.5 145.401 312.2 152.601C309.8 156.501 306 159.101 300.7 160.301L300.2 160.401C298.7 160.601 297.3 160.701 296 160.701ZM282.4 142.701C282.5 143.601 283.8 150.801 288.9 154.501C291.7 156.501 295.2 157.101 299.4 156.301L299.8 156.201C303.9 155.301 306.9 153.301 308.7 150.401C312 144.901 310.2 137.601 310 136.901L307.3 129.001C307.1 128.401 307.2 127.801 307.5 127.201C307.8 126.701 308.4 126.401 309 126.301C319.5 125.601 324.6 124.701 324.3 113.601C323.9 97.901 316.9 81.801 310.6 70.601L280.8 92.901L281.9 120.201L282.4 142.701Z" fill="#333E48"/>
<path d="M299 131.2C298 131.2 297.1 130.4 297 129.3C296.9 128.2 297.8 127.2 298.9 127.2L309.5 126.5C320 125.8 324.7 125 324.4 113.8C324 97.1002 316.1 80.1002 309.6 68.8002C309 67.8002 309.4 66.6002 310.3 66.1002C311.3 65.6002 312.5 65.9002 313 66.8002C319.8 78.5002 327.9 96.2002 328.3 113.7C328.6 129.2 319 129.8 309.6 130.4L299 131.1C299 131.2 299 131.2 299 131.2Z" fill="#333E48"/>
<path d="M293.4 115.501C289.2 115.501 285.6 113.501 283.5 109.801C281 105.601 281.1 100.101 283.8 96.8007C285.3 95.0007 288.8 92.3007 295.7 94.6007C296.7 95.0007 297.3 96.1007 297 97.1007C296.6 98.1007 295.5 98.7007 294.5 98.4007C292.1 97.6007 288.8 97.1007 286.9 99.3007C285.3 101.301 285.3 104.901 287 107.701C288 109.401 290.4 112.101 295.1 111.301C296.2 111.101 297.2 111.801 297.4 112.901C297.6 114.001 296.9 115.001 295.8 115.201C295 115.401 294.2 115.501 293.4 115.501Z" fill="#333E48"/>
<path d="M324.3 98.8015L333.4 95.5015C335 94.9015 335.8 93.2015 335.3 91.6015C331.5 80.8015 316.6 50.4015 280.9 59.7015C248.1 68.2015 258.5 112.302 261.6 123.102C262.1 124.802 263.8 125.702 265.5 125.202C271.4 123.402 286 118.002 295.1 114.902L285.9 109.802L283.7 101.002L287.5 95.5015C287.5 95.5015 292.8 96.6015 294.2 97.7015C295.2 98.4015 296 99.6015 296.7 100.702C297.7 102.502 300.5 101.502 300.2 99.5015V99.4015C299.1 92.3015 293.4 87.9015 293.4 87.9015L318.2 79.4015L320.8 85.0015L324.3 98.8015Z" fill="#333E48"/>
<path d="M262.5 77.1992C270.8 77.1992 277.5 70.4992 277.5 62.1992C277.5 53.8992 270.8 47.1992 262.5 47.1992C254.2 47.1992 247.5 53.8992 247.5 62.1992C247.4 70.4992 254.2 77.1992 262.5 77.1992Z" fill="#333E48"/>
<path d="M365.8 264.201C365.6 264.201 365.3 264.201 365.1 264.101C364.6 263.901 364.2 263.501 364 263.101L349 231.101C348.7 230.401 348.8 229.501 349.4 228.901C350.2 228.101 367.4 210.001 379 200.501C373.9 197.301 363.9 191.201 352.6 184.501C351.6 183.901 351.3 182.701 351.9 181.801C352.5 180.801 353.7 180.501 354.6 181.101C365.8 187.801 379.1 195.801 383.5 198.801C384 199.201 384.4 199.801 384.4 200.401C384.4 201.001 384.1 201.701 383.6 202.001C373.7 209.501 357.3 226.401 353.2 230.701L366.8 259.601C371.1 257.301 376.8 253.401 377.6 250.601C377.9 249.201 375.6 243.001 372.5 237.201C372 236.201 372.4 235.001 373.3 234.501C374.3 234.001 375.5 234.401 376 235.301C378 239.001 382.4 248.101 381.4 251.701C379.6 257.701 368 263.501 366.7 264.101C366.4 264.201 366.1 264.201 365.8 264.201Z" fill="#333E48"/>
<path d="M368.5 241.501C367.8 241.501 367.1 241.101 366.8 240.501C366.3 239.501 366.6 238.301 367.6 237.801C412.8 212.201 416.5 201.301 416 197.801C415.3 192.701 396.6 176.501 370.5 158.401C369.6 157.801 369.4 156.501 370 155.601C370.6 154.701 371.9 154.501 372.8 155.101C386.5 164.701 418.6 187.901 420 197.201C421.3 206.701 404.4 221.601 369.6 241.301C369.2 241.401 368.9 241.501 368.5 241.501Z" fill="#333E48"/>
<path fill-rule="evenodd" clip-rule="evenodd" d="M371.9 156.897C363.1 150.797 354.4 145.397 347.7 141.397C338.8 136.097 327.4 139.897 323.8 149.597C321 157.197 324.1 165.697 331.1 169.697C336.8 172.897 345.1 177.797 353.4 182.797L371.9 156.897Z" fill="#333E48"/>
<path d="M353.5 184.798C353.1 184.798 352.8 184.698 352.5 184.498C343.4 179.098 335.5 174.498 330.2 171.398C322.2 166.898 318.8 157.398 322 148.798C323.9 143.698 327.9 139.698 333.1 137.898C338.3 136.098 344 136.698 348.8 139.498C357.9 144.898 365.8 149.998 373.1 155.098C373.5 155.398 373.8 155.898 373.9 156.398C374 156.898 373.9 157.498 373.6 157.898L355.2 183.798C354.8 184.498 354.1 184.798 353.5 184.798ZM339.1 140.998C337.5 140.998 335.9 141.298 334.3 141.798C330.3 143.198 327.2 146.298 325.7 150.298C323.2 156.998 325.9 164.498 332.1 167.998C337.1 170.898 344.5 175.098 352.9 180.198L369 157.398C362.3 152.798 354.9 148.098 346.6 143.098C344.4 141.698 341.8 140.998 339.1 140.998Z" fill="#333E48"/>
<path d="M136.2 549.398H26C24.9 549.398 24 548.498 24 547.398V274.398C24 273.298 24.9 272.398 26 272.398H136.2C137.3 272.398 138.2 273.298 138.2 274.398V547.398C138.2 548.498 137.3 549.398 136.2 549.398ZM28 545.398H134.2V276.398H28V545.398Z" fill="#333E48"/>
<path d="M262.6 549.398H136.2C135.1 549.398 134.2 548.498 134.2 547.398V196.398C134.2 195.298 135.1 194.398 136.2 194.398H262.6C263.7 194.398 264.6 195.298 264.6 196.398V547.398C264.6 548.498 263.7 549.398 262.6 549.398ZM138.2 545.398H260.6V198.398H138.2V545.398Z" fill="#333E48"/>
<path d="M188.3 471.299C186.9 471.299 185.5 471.199 184.1 470.899C173.7 468.799 165.6 458.699 160.8 441.699C160.6 440.999 160.4 440.299 160.2 439.499C153.2 450.599 145.7 458.999 138.5 463.999C137.6 464.599 136.3 464.399 135.7 463.499C135.1 462.599 135.3 461.299 136.2 460.699C144.1 455.299 151.9 445.599 158.9 433.999C152.3 401.099 157.5 354.199 169.9 342.499C173.7 338.999 177.3 339.199 179.7 340.099C184.1 341.699 186.8 345.999 187.7 352.899C189.4 366.099 184.4 388.699 174.5 411.799C170.9 420.199 167.1 427.899 163 434.699C163.4 436.699 163.9 438.699 164.5 440.599C167.5 451.399 173.5 464.699 184.7 466.999C216.3 473.399 254.6 385.499 260.3 362.999C260.6 361.899 261.7 361.299 262.7 361.599C263.8 361.899 264.4 362.999 264.1 363.999C259.5 383.099 223.6 471.299 188.3 471.299ZM176.8 343.499C175.7 343.499 174.3 343.899 172.8 345.399C167.2 350.599 162.6 365.699 160.9 384.699C159.5 399.699 160 415.399 162.2 428.699C176.4 403.099 186.3 370.599 184 353.399C183.3 348.099 181.5 344.899 178.6 343.799C178 343.699 177.5 343.499 176.8 343.499Z" fill="#333E48"/>
<path fill-rule="evenodd" clip-rule="evenodd" d="M340.3 217.498C339.1 215.698 338.5 213.698 338.4 211.598C338.2 194.398 350.5 142.798 350.5 142.798C335.8 133.698 312.3 136.398 312.3 136.398C312.3 136.398 316.6 154.698 299.6 157.598L299.2 157.698C282.1 160.098 280.8 139.098 280.8 139.098C280.8 139.098 268.8 139.898 258 142.598C257.4 142.698 256.8 142.798 256.2 142.998C248.9 144.898 241.8 146.798 231.4 150.198L240.5 178.298C248.8 178.298 257.9 177.198 261.6 177.098C266.2 176.898 270.1 177.198 271.5 178.098C275.6 180.798 286.5 202.198 288.2 207.198C287.6 207.598 286.8 207.898 286.1 208.098C280.9 208.798 276.8 206.098 272.9 203.998C274.4 207.898 278.4 218.698 279.1 221.098C279.7 222.998 280.1 225.298 279.2 227.098C267.4 249.498 265.3 262.198 265.3 262.198C265.3 262.198 273.4 273.598 316.5 273.598C359.6 273.598 366.4 263.198 366.4 263.198C366.4 263.198 348.8 230.398 340.3 217.498Z" fill="#333E48"/>
<path d="M316.3 275.698C298.2 275.698 283.9 273.698 273.8 269.898C266.1 266.898 263.7 263.798 263.5 263.498C263.2 263.098 263.1 262.498 263.2 261.998C263.3 261.498 265.6 248.698 277.3 226.298C277.9 225.098 277.5 223.198 277.1 221.798C276.4 219.498 272.5 208.898 271 204.798C270.7 203.998 270.9 203.098 271.5 202.598C272.1 201.998 273 201.898 273.8 202.298C274.2 202.498 274.7 202.798 275.2 202.998C278.4 204.798 281.8 206.598 285.7 206.098C282.8 199.098 273.6 181.798 270.5 179.798C269.9 179.398 267 178.898 261.7 179.098C260.4 179.098 258.3 179.298 256 179.498C251.8 179.798 245.9 180.298 240.5 180.298C239.6 180.298 238.9 179.698 238.6 178.898L229.5 150.798C229.3 150.298 229.4 149.698 229.6 149.298C229.8 148.798 230.3 148.498 230.8 148.298C241.4 144.898 248.7 142.998 255.7 141.098C256.3 140.898 257 140.798 257.6 140.698C268.4 137.998 280.1 137.198 280.6 137.098C281.1 137.098 281.7 137.198 282.1 137.598C282.5 137.998 282.7 138.398 282.8 138.998C282.8 139.098 283.5 148.798 289.3 153.398C291.9 155.498 295.1 156.198 299 155.698L299.4 155.598C303.5 154.898 306.6 153.098 308.5 150.198C312.2 144.698 310.5 136.798 310.4 136.798C310.3 136.198 310.4 135.698 310.7 135.198C311 134.698 311.5 134.398 312.1 134.398C313.1 134.298 336.4 131.798 351.5 141.098C352.2 141.598 352.6 142.398 352.4 143.298C352.3 143.798 340.2 194.798 340.4 211.598C340.4 213.298 340.9 214.998 341.9 216.398C350.4 229.198 367.2 260.898 367.9 262.298C368.2 262.898 368.2 263.698 367.8 264.298C367.1 265.498 359.2 275.698 316.3 275.698ZM267.3 261.598C269.7 263.798 280.8 271.598 316.3 271.598C350.1 271.598 361 265.098 363.8 262.798C360.5 256.598 346.1 229.698 338.7 218.598C337.3 216.498 336.5 214.098 336.5 211.598C336.3 195.798 346.3 152.398 348.3 143.798C336.9 137.498 320.5 137.798 314.7 138.198C315.1 141.398 315.1 147.498 311.8 152.498C309.3 156.298 305.3 158.698 300 159.598L299.5 159.698C294.5 160.398 290.1 159.398 286.7 156.598C281.3 152.298 279.6 144.898 279 141.398C275.2 141.798 266.4 142.698 258.5 144.698C258.4 144.698 258.4 144.698 258.3 144.698C257.8 144.798 257.2 144.898 256.7 144.998C250.1 146.698 243.4 148.498 233.9 151.498L241.9 176.298C246.7 176.198 251.6 175.798 255.6 175.498C258.1 175.298 260.1 175.098 261.5 175.098C265.3 174.898 270.4 174.998 272.6 176.498C277.4 179.598 288.4 201.598 290.1 206.598C290.4 207.498 290 208.398 289.3 208.898C288.5 209.398 287.5 209.798 286.5 210.098C286.4 210.098 286.4 210.098 286.3 210.098C282.6 210.598 279.4 209.598 276.6 208.298C278.3 212.998 280.5 218.898 281 220.598C281.6 222.798 282.2 225.598 280.9 228.098C271.1 246.498 268 258.298 267.3 261.598Z" fill="#333E48"/>
<path d="M501.8 549.5H119.9C118.8 549.5 117.9 548.6 117.9 547.5C117.9 546.4 118.8 545.5 119.9 545.5H501.7C502.8 545.5 503.7 546.4 503.7 547.5C503.7 548.6 502.9 549.5 501.8 549.5Z" fill="#333E48"/>
</svg>
