<svg width="568" height="568" viewBox="0 0 568 568" fill="none" xmlns="http://www.w3.org/2000/svg">
<g clip-path="url(#clip0)">
<path d="M438.105 278.445C444.428 276.921 450.226 275.366 453.398 274.139C444.735 268.05 429.234 265.455 418.028 262.762C418.028 262.762 408.432 261.571 405.323 259.959" stroke="#333E48" stroke-width="4" stroke-linecap="round" stroke-linejoin="round"/>
<path d="M188.612 464.35H305.851C336.468 464.35 365.958 437.471 379.509 420.946C400.865 394.904 454.748 309.187 454.748 309.187C456.12 306.712 456.698 304.097 456.625 301.564" stroke="#333E48" stroke-width="4" stroke-linecap="round" stroke-linejoin="round"/>
<path d="M359.366 441.086L407.039 547.967H398.828L346.095 450.815" stroke="#333E48" stroke-width="4" stroke-linecap="round" stroke-linejoin="round"/>
<path d="M171.667 481.322L140.857 547.966H149.068L194.963 464.35" stroke="#333E48" stroke-width="4" stroke-linecap="round" stroke-linejoin="round"/>
<path d="M121.445 526.963C121.445 526.963 110.759 545.095 107.026 545.907C102.221 546.957 91.5869 538.954 86.9589 537.29C79.9701 534.778 67.6981 533.796 61.5881 530.567C52.6701 525.845 50.8241 517.764 50.8241 517.764C50.8241 517.764 70.0173 517.483 85.6953 516.573C91.2229 516.251 101.181 514.686 101.181 514.686L121.445 526.963Z" stroke="#333E48" stroke-width="4" stroke-linecap="round" stroke-linejoin="round"/>
<path d="M94.4316 476.123C94.4316 476.123 83.1112 492.014 79.3204 492.477C74.4376 493.07 64.5992 484.111 60.148 482.02C53.4244 478.869 41.298 476.737 35.5208 472.951C27.0812 467.419 25.9996 459.197 25.9996 459.197C25.9996 459.197 45.1304 460.716 60.8292 461.272C66.362 461.47 76.4344 460.794 76.4344 460.794L94.4316 476.123Z" stroke="#333E48" stroke-width="4" stroke-linecap="round" stroke-linejoin="round"/>
<path d="M320.932 443.258C290.246 452.332 228.507 446.643 200.047 451.916C164.979 491.202 154.495 493.074 125.781 529.593L94.9709 510.925C94.9709 510.925 136.238 454.531 164.282 427.746" stroke="#333E48" stroke-width="4" stroke-linecap="round" stroke-linejoin="round"/>
<path fill-rule="evenodd" clip-rule="evenodd" d="M359.34 414.721C359.34 414.721 343.241 443.748 312.862 444.028C262.271 444.496 239.407 425.345 176.451 414.82C152.203 443.945 117.41 460.934 96.3864 477.782L71.8319 456.872C71.8319 456.872 139.957 381.623 177.725 373.335C202.69 367.859 291.371 382.512 291.371 382.512L359.34 414.721Z" stroke="#333E48" stroke-width="4" stroke-linecap="round" stroke-linejoin="round"/>
<path fill-rule="evenodd" clip-rule="evenodd" d="M438.695 470.486H552.871L538.254 547.967H453.307L438.695 470.486Z" fill="#333E48" stroke="#333E48" stroke-width="4" stroke-linecap="round" stroke-linejoin="round"/>
<path d="M495.923 468.411C495.923 468.411 491.003 293.052 516.613 225.301" stroke="#333E48" stroke-width="4" stroke-linecap="round" stroke-linejoin="round"/>
<path d="M556.173 176C556.173 176 565.221 249.934 506.076 267.499C506.076 267.499 460.499 211.251 556.173 176Z" stroke="#333E48" stroke-width="4" stroke-linecap="round" stroke-linejoin="round"/>
<path d="M495.749 367.292C495.749 367.292 507.808 325.105 455.345 323.867C455.345 323.862 444.441 364.448 495.749 367.292Z" stroke="#333E48" stroke-width="4" stroke-linecap="round" stroke-linejoin="round"/>
<path d="M499.727 320.083L524.256 308.58" stroke="#333E48" stroke-width="4" stroke-linecap="round" stroke-linejoin="round"/>
<path d="M559.58 284.373C559.58 284.373 516.202 278.607 516.618 312.162C516.612 312.162 540.99 335.188 559.58 284.373Z" stroke="#333E48" stroke-width="4" stroke-linecap="round" stroke-linejoin="round"/>
<path d="M495.23 442.189C495.23 442.189 483.166 404.952 456.308 410.349C456.303 410.349 458.565 443.296 495.23 442.189Z" stroke="#333E48" stroke-width="4" stroke-linecap="round" stroke-linejoin="round"/>
<path d="M459.1 468.412C459.1 468.412 444.633 414.036 409.518 382.977" stroke="#333E48" stroke-width="4" stroke-linecap="round" stroke-linejoin="round"/>
<path d="M442.881 427.909L417.978 423.25" stroke="#333E48" stroke-width="4" stroke-linecap="round" stroke-linejoin="round"/>
<path d="M408.962 236.559C413.886 238.992 423.876 244.821 423.876 244.821C454.275 253.838 499.879 257.265 499.941 274.097C499.983 285.329 470.499 298.069 443.501 305.547" stroke="#333E48" stroke-width="4" stroke-linecap="round" stroke-linejoin="round"/>
<path fill-rule="evenodd" clip-rule="evenodd" d="M317.928 333.389L309.394 306.058C313.809 303.032 318.448 299.428 321.854 296.246C325.915 292.445 329.42 289.408 332.519 286.958C334.23 285.606 336.174 284.691 338.208 284.213L338.327 283.932C344.838 282.726 365.393 285.69 365.393 285.69C365.04 288.388 367.187 296.568 375.143 300.427C383.099 304.29 397.415 298.929 397.415 285.69C397.415 285.69 403.187 285.924 419.504 282.689C424.772 281.576 431.574 280.089 437.855 278.576L443.352 305.595C434.506 308.039 425.932 309.911 418.761 310.982C409.905 323.499 391.617 348.027 387.452 355.604C366.048 394.552 359.091 414.852 359.091 414.852L291.116 382.644C291.111 382.633 311.053 351.886 317.928 333.389Z" fill="#333E48" stroke="#333E48" stroke-width="4" stroke-linecap="round" stroke-linejoin="round"/>
<path d="M259.515 237.157L258.246 234.651C257.211 232.613 258.693 230.205 260.976 230.205H279.03C282.317 230.205 285.296 232.129 286.648 235.119L305.098 275.892C306.143 278.201 304.489 280.827 301.957 280.884L291.188 281.061" stroke="#333E48" stroke-width="4" stroke-linecap="round" stroke-linejoin="round"/>
<path d="M319.059 337.003C304.899 349.41 287.38 362.774 275.763 359.368C267.672 356.991 262.358 352.722 266.934 336.176C269.315 327.56 278.046 307.623 281.821 299.157C282.955 296.391 282.539 293.229 280.729 290.847C272.165 279.584 262.935 269.678 260.179 260.849C258.619 255.857 258.692 235.535 258.692 235.535C258.692 235.535 264.443 237.776 264.807 242.69C265.077 246.304 265.863 255.617 265.863 255.617L265.842 255.633L278.842 246.346C278.842 246.346 280.896 250.147 279.346 253.402C278.176 255.857 272.805 259.731 272.805 259.731C273.574 259.393 287.931 276.953 292.715 282.928C295.591 286.521 299.049 289.859 298.519 294.617L297.973 313.301C297.973 313.301 302.996 310.436 309.418 306.037" stroke="#333E48" stroke-width="4" stroke-linecap="round" stroke-linejoin="round"/>
<path d="M297.975 313.301L297.377 333.882" stroke="#333E48" stroke-width="4" stroke-linecap="round" stroke-linejoin="round"/>
<path fill-rule="evenodd" clip-rule="evenodd" d="M394.801 262.215L397.516 285.251C397.516 294.091 390.35 301.262 381.505 301.262C372.665 301.262 365.494 294.096 365.494 285.251L366.617 276.536L366.576 276.541C358.38 277.316 352.775 276.068 350.669 264.503C347.746 248.118 351.329 229.777 356.456 214.328L395.67 235.008L394.801 262.215Z" stroke="#333E48" stroke-width="4" stroke-linecap="round" stroke-linejoin="round"/>
<path d="M366.581 276.542C367.964 276.412 369.42 276.225 370.944 276.017C374.132 275.585 381.947 274.529 381.947 274.529" stroke="#333E48" stroke-width="4" stroke-linecap="round" stroke-linejoin="round"/>
<path d="M379.03 239.237C394.588 230.199 397.526 257.119 382.207 257.541" stroke="#333E48" stroke-width="4" stroke-linecap="round" stroke-linejoin="round"/>
<path d="M375.155 233.359C375.155 233.359 365.254 227.988 351.828 220.39C340.726 214.109 356.96 196.262 362.68 196.522C368.4 196.782 360.34 202.508 360.34 202.508C360.34 202.508 368.12 197.968 371.344 200.032C374.521 202.066 368.879 206.974 368.879 206.974C368.879 206.974 377.355 208.337 389.975 208.503C402.601 208.67 407.749 214.462 408.669 222.715C409.584 230.972 413.167 264.491 394.868 266.379C394.868 266.379 390.22 260.144 383.584 258.345L392.305 252.209L392.825 241.736L385.472 237.805C385.472 237.805 376.674 244.191 374.256 242.771C372.202 241.554 375.155 233.359 375.155 233.359Z" fill="#333E48"/>
<path d="M355.057 254.939C363.928 254.939 368.432 264.305 368.432 264.305H346.612C346.612 264.305 344.829 254.939 355.057 254.939Z" fill="#333E48"/>
<path d="M71.8474 225.347C92.9023 234.766 147.472 317.674 124.07 344.067C97.6541 373.857 -8.37907 302.065 11.4082 285.192C28.5934 270.538 91.7936 342.708 94.7641 381.581" stroke="#333E48" stroke-width="4" stroke-linecap="round" stroke-linejoin="round"/>
<path d="M176.378 192C220.217 192 255.756 156.854 255.756 113.5C255.756 70.1456 220.217 35 176.378 35C132.539 35 97 70.1456 97 113.5C97 156.854 132.539 192 176.378 192Z" stroke="#333E48" stroke-width="4" stroke-linecap="round" stroke-linejoin="round"/>
<path d="M176.379 42.1582V50.6037" stroke="#333E48" stroke-width="4" stroke-linecap="round" stroke-linejoin="round"/>
<path d="M176.377 184.842L176.377 176.396" stroke="#333E48" stroke-width="4" stroke-linecap="round" stroke-linejoin="round"/>
<path d="M248.522 113.5H239.977" stroke="#333E48" stroke-width="4" stroke-linecap="round" stroke-linejoin="round"/>
<path d="M112.784 113.5H104.238" stroke="#333E48" stroke-width="4" stroke-linecap="round" stroke-linejoin="round"/>
<path d="M227.391 63.0547L221.35 69.0261" stroke="#333E48" stroke-width="4" stroke-linecap="round" stroke-linejoin="round"/>
<path d="M131.41 157.979L125.369 163.95" stroke="#333E48" stroke-width="4" stroke-linecap="round" stroke-linejoin="round"/>
<path d="M227.391 163.95L221.35 157.979" stroke="#333E48" stroke-width="4" stroke-linecap="round" stroke-linejoin="round"/>
<path d="M184.186 114.971L223.75 122.414" stroke="#333E48" stroke-width="4" stroke-linecap="round" stroke-linejoin="round"/>
<path d="M176.378 121.362C180.767 121.362 184.325 117.843 184.325 113.501C184.325 109.158 180.767 105.639 176.378 105.639C171.989 105.639 168.432 109.158 168.432 113.501C168.432 117.843 171.989 121.362 176.378 121.362Z" stroke="#333E48" stroke-width="4" stroke-linecap="round" stroke-linejoin="round"/>
<path d="M170.271 108.472L125.135 63.3359" stroke="#333E48" stroke-width="4" stroke-linecap="round" stroke-linejoin="round"/>
</g>
<defs>
<clipPath id="clip0">
<rect width="568" height="568" fill="white"/>
</clipPath>
</defs>
</svg>
